<?xml version="1.0" standalone="no"?>
<!DOCTYPE svg PUBLIC "-//W3C//DTD SVG 20010904//EN"
 "http://www.w3.org/TR/2001/REC-SVG-20010904/DTD/svg10.dtd">
<svg version="1.0" xmlns="http://www.w3.org/2000/svg"
 width="1200.000000pt" height="1200.000000pt" viewBox="0 0 1200.000000 1200.000000"
 preserveAspectRatio="xMidYMid meet">
<metadata>
Created by potrace 1.11, written by Peter Selinger 2001-2013
</metadata>
<g transform="translate(0.000000,1200.000000) scale(0.100000,-0.100000)"
fill="#000000" stroke="none">
<path d="M11569 11476 c-2 -2 -40 -7 -84 -10 -44 -4 -100 -9 -125 -11 -25 -3
-76 -7 -115 -10 -137 -11 -191 -15 -245 -20 -84 -7 -168 -14 -240 -20 -36 -3
-81 -7 -100 -10 -19 -2 -78 -7 -130 -11 -52 -3 -101 -7 -110 -9 -8 -1 -58 -6
-110 -10 -52 -4 -111 -8 -130 -10 -19 -2 -73 -6 -120 -9 -47 -4 -101 -9 -120
-11 -19 -2 -75 -7 -124 -10 -50 -4 -98 -8 -108 -10 -9 -2 -59 -7 -110 -10 -51
-4 -109 -8 -128 -10 -43 -3 -192 -16 -240 -20 -19 -2 -73 -6 -120 -10 -47 -4
-98 -8 -115 -10 -16 -2 -68 -7 -115 -10 -47 -3 -101 -8 -120 -10 -19 -2 -73
-6 -120 -9 -47 -4 -101 -9 -120 -11 -19 -2 -71 -7 -115 -10 -44 -3 -98 -8
-120 -10 -22 -2 -76 -7 -120 -10 -44 -4 -96 -8 -115 -10 -19 -2 -71 -7 -115
-10 -119 -9 -174 -14 -235 -20 -64 -6 -147 -13 -245 -20 -38 -3 -86 -7 -105
-9 -19 -3 -75 -8 -125 -11 -49 -3 -106 -8 -125 -10 -64 -7 -174 -17 -225 -20
-45 -3 -83 -6 -235 -20 -25 -2 -79 -7 -120 -10 -41 -4 -95 -8 -120 -10 -25 -2
-79 -6 -120 -10 -41 -3 -95 -8 -120 -10 -25 -2 -79 -7 -120 -10 -181 -14 -156
-3 -249 -110 -155 -178 -240 -275 -262 -300 -63 -71 -749 -857 -794 -909 -27
-32 -58 -68 -69 -80 -10 -11 -57 -66 -105 -121 -47 -55 -89 -102 -92 -105 -6
-5 -254 -289 -353 -404 -28 -32 -58 -66 -66 -75 -9 -9 -43 -47 -75 -86 -33
-38 -62 -72 -65 -75 -3 -3 -82 -93 -175 -200 -93 -107 -172 -197 -175 -200 -3
-3 -34 -39 -70 -80 -36 -41 -69 -80 -75 -86 -5 -6 -32 -37 -60 -69 -27 -32
-63 -72 -78 -89 -15 -17 -56 -64 -90 -104 l-62 -73 -3 50 -3 51 138 158 c154
177 239 275 266 306 10 12 71 82 136 156 66 74 246 282 402 461 608 697 823
944 828 949 4 3 31 34 61 70 30 36 60 70 66 75 11 10 319 367 343 397 11 15
11 19 -5 25 -11 4 -59 30 -109 58 -49 29 -119 68 -155 88 -36 19 -135 74 -220
122 l-155 86 -90 -6 c-49 -4 -108 -8 -130 -10 -74 -8 -160 -15 -235 -20 -41
-3 -95 -7 -120 -10 -49 -6 -106 -11 -220 -20 -41 -3 -95 -8 -120 -10 -25 -3
-81 -7 -125 -11 -44 -3 -98 -7 -120 -9 -22 -2 -76 -7 -120 -10 -44 -4 -96 -8
-115 -10 -19 -2 -69 -6 -110 -10 -41 -3 -97 -8 -125 -10 -27 -2 -84 -7 -125
-10 -41 -3 -86 -8 -100 -10 -14 -2 -65 -6 -115 -10 -49 -4 -106 -8 -125 -10
-19 -2 -71 -6 -115 -9 -44 -4 -100 -9 -125 -11 -25 -2 -76 -7 -115 -10 -120
-9 -199 -16 -235 -20 -19 -2 -75 -7 -125 -10 -49 -4 -106 -8 -125 -10 -19 -2
-73 -7 -120 -10 -47 -4 -101 -8 -120 -10 -84 -8 -238 -22 -337 -30 -119 -10
-188 -15 -243 -20 -30 -3 -82 -7 -115 -10 -83 -5 -192 -15 -240 -20 -70 -8
-199 -18 -232 -19 l-33 0 3 -685 2 -686 55 -12 c30 -7 64 -15 75 -17 11 -3 61
-14 110 -26 50 -12 97 -23 105 -25 8 -2 107 -26 220 -54 113 -27 216 -52 230
-55 14 -3 45 -10 70 -16 25 -6 64 -11 88 -12 40 0 42 -1 30 -18 -19 -26 -163
-202 -185 -225 -10 -11 -28 -33 -40 -48 l-21 -28 -1 -2539 0 -2540 37 6 c20 3
102 19 182 35 80 16 156 32 170 34 14 3 129 25 255 50 l230 45 60 63 c56 59
220 238 255 277 16 18 177 194 220 241 14 15 41 44 60 65 36 41 337 371 355
390 5 6 46 50 90 99 44 49 89 98 100 110 47 50 136 147 220 240 50 54 97 106
105 115 8 9 80 88 160 175 80 88 149 165 155 171 80 86 271 295 421 459 109
120 424 465 439 481 5 6 51 55 100 110 50 54 117 128 150 164 33 36 98 107
145 159 47 51 96 105 109 120 13 14 49 53 80 87 31 33 94 102 141 154 47 51
90 98 95 104 6 6 80 88 164 181 85 94 159 175 165 180 9 8 58 62 211 231 6 6
49 53 96 105 94 101 113 122 174 190 74 82 158 174 205 224 25 28 91 100 145
160 55 61 102 112 106 115 3 3 54 59 114 125 99 110 179 196 213 231 8 8 36
14 70 15 31 0 71 2 87 4 17 2 79 5 138 8 l108 6 -47 -52 c-26 -29 -55 -59 -63
-68 -9 -8 -51 -54 -94 -101 -109 -121 -118 -130 -231 -252 -56 -60 -105 -114
-111 -120 -32 -35 -221 -242 -225 -246 -11 -12 -131 -142 -220 -239 -52 -58
-106 -117 -120 -131 -14 -15 -45 -49 -70 -76 -25 -27 -92 -101 -150 -163 -58
-63 -114 -124 -125 -136 -11 -12 -63 -68 -115 -125 -52 -57 -106 -115 -118
-129 -13 -14 -61 -66 -107 -116 -108 -117 -120 -130 -184 -201 -30 -32 -81
-89 -115 -125 -34 -36 -104 -112 -157 -170 -52 -57 -178 -194 -279 -304 -101
-110 -227 -247 -279 -304 -53 -58 -123 -134 -157 -170 -34 -36 -72 -78 -85
-92 -23 -26 -157 -171 -214 -234 -89 -96 -216 -234 -239 -260 -15 -16 -44 -48
-65 -70 -20 -22 -115 -125 -211 -230 -96 -104 -176 -192 -179 -195 -3 -3 -51
-54 -106 -115 -55 -60 -102 -112 -105 -115 -4 -3 -35 -36 -70 -75 -35 -38
-109 -119 -165 -180 -56 -60 -121 -132 -146 -159 -24 -27 -55 -61 -69 -75 -25
-27 -90 -98 -190 -206 -30 -33 -100 -109 -155 -169 -165 -179 -305 -332 -344
-375 -13 -14 -69 -75 -125 -136 -56 -60 -123 -134 -151 -164 -27 -30 -77 -84
-111 -121 -84 -91 -363 -394 -409 -444 -5 -6 -59 -65 -120 -131 -60 -66 -131
-142 -156 -170 -112 -123 -186 -203 -220 -240 -21 -22 -50 -53 -65 -70 -15
-16 -72 -79 -128 -139 -56 -60 -108 -117 -117 -127 -16 -19 -170 -186 -222
-242 -15 -16 -26 -31 -25 -32 2 -2 39 -6 83 -9 104 -8 200 -16 250 -21 22 -2
76 -6 120 -9 44 -4 98 -8 120 -11 22 -2 76 -7 120 -10 44 -3 96 -8 115 -10 19
-2 71 -7 115 -10 44 -3 103 -8 130 -11 110 -10 153 -14 230 -19 44 -4 94 -8
110 -10 17 -2 64 -7 105 -10 99 -7 182 -14 255 -20 143 -12 174 -15 360 -30
71 -6 143 -12 225 -20 25 -2 79 -6 120 -10 41 -3 95 -7 120 -10 25 -3 77 -7
115 -10 39 -3 93 -7 120 -10 98 -9 161 -14 250 -20 50 -4 101 -8 115 -10 14
-2 66 -7 115 -10 50 -4 101 -8 115 -10 14 -2 66 -7 115 -10 50 -3 106 -8 125
-10 19 -3 69 -7 110 -10 42 -3 93 -7 115 -9 80 -8 181 -17 240 -21 59 -4 132
-10 230 -19 28 -3 86 -8 130 -11 44 -4 97 -8 118 -11 29 -3 50 3 85 23 26 14
65 36 87 48 22 13 112 64 200 115 88 50 185 106 215 123 30 17 68 38 83 47 15
10 354 341 753 736 400 395 815 807 924 914 109 107 511 506 895 885 383 380
700 691 703 693 4 1 7 -228 7 -509 l0 -511 -135 -131 c-74 -71 -265 -257 -425
-413 -159 -155 -335 -326 -390 -379 -55 -54 -230 -225 -390 -380 -159 -155
-326 -317 -370 -360 -121 -116 -645 -627 -847 -824 -98 -96 -177 -175 -176
-177 3 -2 55 -7 198 -18 25 -2 68 -7 95 -10 28 -3 90 -8 139 -11 50 -4 97 -8
106 -10 9 -2 61 -6 117 -9 55 -4 109 -8 119 -10 11 -2 65 -7 121 -10 57 -4
111 -9 120 -10 10 -2 61 -7 113 -10 52 -4 113 -9 135 -11 22 -2 70 -7 108 -10
98 -7 196 -16 247 -21 73 -7 227 -19 360 -29 93 -7 196 -16 220 -20 14 -2 68
-6 120 -10 52 -4 108 -8 124 -10 15 -2 69 -6 120 -10 50 -3 102 -8 116 -10 14
-2 63 -7 110 -10 47 -3 105 -8 130 -10 25 -3 74 -7 110 -10 36 -3 88 -7 115
-10 28 -2 86 -7 130 -10 44 -4 96 -8 115 -10 19 -2 71 -7 115 -10 44 -4 96 -8
115 -10 19 -2 71 -6 115 -10 44 -3 105 -8 135 -11 30 -2 82 -7 115 -9 33 -3
85 -8 115 -10 30 -3 80 -7 112 -10 31 -2 85 -7 120 -10 79 -7 154 -13 238 -20
36 -3 92 -8 125 -11 63 -5 115 -10 230 -19 39 -3 86 -8 105 -10 19 -2 76 -7
125 -10 50 -4 120 -10 158 -14 37 -4 71 -5 76 -2 4 3 45 105 91 226 l83 220 1
748 c1 412 -2 753 -5 759 -4 6 -29 12 -55 13 -27 2 -107 6 -179 10 -71 3 -161
8 -200 11 -38 2 -119 6 -180 9 -60 3 -141 8 -180 10 -38 2 -124 7 -190 10 -66
4 -143 8 -170 10 -28 2 -120 6 -205 10 -174 8 -205 11 -204 16 1 4 85 85 233
225 47 43 149 142 228 220 l143 141 0 2735 0 2735 -67 61 c-38 33 -95 86 -128
117 l-60 56 -140 -144 c-225 -231 -667 -687 -730 -752 -32 -33 -182 -188 -335
-345 -152 -157 -304 -313 -336 -346 -32 -34 -171 -177 -309 -319 -137 -141
-274 -282 -304 -313 -30 -32 -187 -194 -350 -361 -163 -168 -314 -323 -336
-346 -22 -23 -161 -167 -310 -320 -148 -153 -301 -311 -340 -350 -38 -40 -187
-193 -331 -341 -143 -148 -294 -304 -335 -346 -41 -42 -189 -195 -329 -339
-140 -144 -282 -290 -315 -324 -33 -34 -181 -187 -330 -340 -148 -153 -288
-297 -310 -320 -284 -296 -386 -394 -407 -390 -24 3 -156 11 -368 20 -131 6
-201 12 -207 19 -2 2 22 30 54 63 96 98 477 495 518 538 20 22 125 132 234
244 108 113 212 221 231 241 19 20 82 86 140 146 58 60 202 210 320 334 118
123 263 274 321 334 59 61 126 132 150 157 24 25 132 138 240 250 108 112 220
229 249 259 29 30 138 144 244 254 105 109 206 215 225 235 19 20 120 126 226
236 106 110 216 225 245 255 29 30 134 140 234 243 99 104 203 212 230 240 26
29 98 104 160 167 61 64 206 214 321 335 116 120 258 269 316 330 59 60 126
130 149 155 57 60 407 425 547 569 61 64 134 140 161 169 28 29 138 144 245
255 107 111 216 225 242 252 26 28 93 97 149 155 55 58 193 202 306 320 113
117 259 270 326 339 66 69 145 151 175 183 160 167 448 467 545 568 61 63 128
133 149 155 20 22 55 59 77 82 l40 41 -57 164 c-31 89 -64 186 -72 213 -15 47
-44 91 -54 81z"/>
</g>
</svg>
